<?xml version="1.0" standalone="no"?><!DOCTYPE svg PUBLIC "-//W3C//DTD SVG 1.1//EN" "http://www.w3.org/Graphics/SVG/1.1/DTD/svg11.dtd"><svg class="icon" width="200px" height="200.00px" viewBox="0 0 1024 1024" version="1.1" xmlns="http://www.w3.org/2000/svg"><path fill="#ffffff" d="M508.068458 68.448952c-15.960507-6.565533-33.750685-2.663666-45.892213 9.56382l-208.498638 210.654744L150.309354 288.667515c-23.503297 0-42.402739 18.642592-42.402739 42.141796L107.906615 693.241854c0 23.49818 18.899442 42.141796 42.402739 42.141796l103.369276 0 209.027687 210.654744c8.151657 8.206916 19.082614 12.671601 30.211069 12.671601 5.455245 0 9.903557-0.997724 15.151072-3.158946 15.939017-6.569626 25.281803-22.049179 25.281803-39.289841L533.350261 107.788935C533.351284 90.549296 524.007475 75.018577 508.068458 68.448952zM448.26235 813.019845 300.55424 663.061484c-7.990998-8.045233-17.817808-12.767791-29.15911-12.767791l-78.399581 0L192.995549 373.755426l78.399581 0c11.341303 0 21.168112-4.722558 29.15911-12.767791L448.26235 211.029274 448.26235 813.019845zM672.196539 692.103938c-8.410554 9.432837-20.074198 14.242376-31.79003 14.242376-10.07445 0-20.189831-3.553942-28.299533-10.783601-17.550725-15.639189-19.098987-42.534745-3.460822-60.07626 105.97666-118.880551 11.050684-234.291071-0.124843-247.058862-15.425318-17.629519-13.767562-44.48312 3.792373-59.987233 17.58654-15.510252 44.295855-13.963013 59.881832 3.505847C727.72011 394.229736 799.178605 549.661761 672.196539 692.103938zM800.394293 805.935496c-8.4126 9.431813-20.075221 14.242376-31.791054 14.242376-10.07445 0-20.189831-3.553942-28.299533-10.783601-17.550725-15.639189-19.097964-42.534745-3.459798-60.07626 208.05043-233.387491 8.526187-464.919728-0.067538-474.664673-15.523555-17.59268-13.912871-44.467771 3.641947-60.030212 17.567098-15.551184 44.3593-14.023388 59.977 3.490497C803.01191 221.048465 1059.402301 515.38612 800.394293 805.935496z" /></svg>