<?xml version="1.0" standalone="no"?><!DOCTYPE svg PUBLIC "-//W3C//DTD SVG 1.1//EN" "http://www.w3.org/Graphics/SVG/1.1/DTD/svg11.dtd"><svg class="icon" width="200px" height="200.00px" viewBox="0 0 1024 1024" version="1.1" xmlns="http://www.w3.org/2000/svg"><path fill="#ffffff" d="M349.88544 73.0368c-3.94752-11.1104-14.65344-18.93888-27.38688-18.62144-15.93344 0.47616-28.73344 13.5936-28.60544 29.35296l4.56704 499.48672c-32-22.34368-74.5728-35.44576-121.24672-34.08384-98.6368 2.85184-177.94048 68.44928-177.20832 146.44224 0.68096 78.0288 81.17248 138.95168 179.7888 136.08448 98.58048-2.94912 177.87904-68.46976 177.14688-146.4576-0.01536-1.94048-0.2816-3.82976-0.384-5.71904 0.29696-1.8432 0.4864-3.69152 0.512-5.6064l-3.88096-417.41824c138.22464 51.91168 247.54688-62.24896 247.54688-62.24896-158.336 43.15648-237.21984-94.47424-250.84928-121.21088z"  /><path fill="#ffffff" d="M575.76448 713.01632h7.69024c28.57984 0 57.16992 0.2304 85.7344-0.2304 4.86912-0.08704 10.4448-1.97632 14.41792-5.05344 42.89536-33.23904 85.55008-66.83136 128.26112-100.34688 10.48064-66.31424-0.8448-136.01792-37.3504-197.7856-45.09184-76.288-119.40864-125.13792-201.21088-141.16352-86.82496 64.68608-173.88032 52.54656-173.88032 52.54656s8.50432 338.07872 1.88928 396.35456c-4.08064 36.352-37.01248 88.61696-61.1328 108.032 69.07392 42.52672 154.19392 56.192 235.58656 36.3264l-0.00512-148.67968zM631.296 555.3664l148.59264-4.7616s5.12 39.97184-8.448 79.17056l-142.848-37.74976c-0.00512 0.00512 4.56704-19.3024 2.70336-36.6592z m-204.6208 58.7776c-25.66144-43.41248-10.32704-99.92192 34.25792-126.14144 44.57472-26.20928 101.59104-12.24704 127.24736 31.17568 25.70752 43.48928 10.35264 100.00896-34.2272 126.22848-44.57984 26.21952-101.57568 12.2368-127.27808-31.26272z"  /><path fill="#ffffff" d="M716.86144 752.6144c-3.2768 2.28352-7.87968 3.68128-11.89888 3.74272-23.58784 0.34304-47.19104 0.16896-70.784 0.16896h-6.3488v120.832h7.17824c23.99232 0.00512 47.98976-0.09216 71.97696 0.13312a16.26112 16.26112 0 0 1 8.68352 2.7392c37.02272 25.84576 73.91232 51.88096 110.85312 77.84448 1.4848 1.0496 3.10784 1.8944 4.88448 2.95936v-288.57856c-1.82784 1.21344-2.9952 1.94048-4.11648 2.72384-36.77696 25.856-73.49248 51.7888-110.42816 77.43488zM1016.60672 760.15104c-8.70912-33.85856-24.28928-64.19968-46.91968-90.90048-5.05344-5.97504-11.5712-6.94784-16.59904-2.70336-4.97152 4.20352-5.27872 10.99264-0.7424 16.98304 0.95744 1.25952 1.96608 2.47808 2.96448 3.70688 57.76896 71.40864 61.98784 170.88 10.39872 247.03488-3.9936 5.888-8.59136 11.3664-12.70272 17.16736-3.04128 4.29568-3.09248 8.99072-0.1792 13.33248 2.82112 4.224 7.22944 5.86752 11.94496 4.1472 2.75968-1.00864 5.41184-3.25632 7.30624-5.59104 34.38592-42.26048 50.9696-90.89536 51.92192-145.05984a231.65952 231.65952 0 0 0-7.39328-58.11712zM899.77344 721.64864c-4.56192-4.98688-10.48576-5.38112-15.42656-1.4592-4.68992 3.71712-5.64224 10.17344-2.03776 15.44192 1.78176 2.60096 4.0192 4.8896 6.04672 7.3216 18.23744 21.87776 26.53696 47.29856 27.02336 74.12224-0.69632 30.49472-10.15808 56.27904-29.33248 78.4384-5.51424 6.3744-5.25824 13.3632 0.2304 17.68448 5.60128 4.40832 11.5712 3.24608 16.98304-3.1488 24.63232-29.13792 35.968-62.67904 33.87904-100.76672-1.86368-33.73056-14.68416-62.79168-37.36576-87.63392z"  /></svg>