<?xml version="1.0" standalone="no"?><!DOCTYPE svg PUBLIC "-//W3C//DTD SVG 1.1//EN" "http://www.w3.org/Graphics/SVG/1.1/DTD/svg11.dtd"><svg t="1691736965080" class="icon" viewBox="0 0 1024 1024" version="1.1" xmlns="http://www.w3.org/2000/svg" p-id="4409" width="32" height="32" xmlns:xlink="http://www.w3.org/1999/xlink"><path d="M657.09056 790.97856l0-311.6032 183.52128-29.75744C811.37664 294.69696 675.42016 177.48992 512 177.48992c-184.75008 0-334.51008 149.76-334.51008 334.51008S327.24992 846.51008 512 846.51008c17.92 0 35.49184-1.45408 52.64384-4.15744 13.42464-22.29248 37.51936-40.18176 68.10624-47.83104C640.82944 792.51456 648.99072 791.32672 657.09056 790.97856zM573.46048 204.78976l-35.84 157.02016-35.84 0-25.6-157.02016C513.73056 186.0096 573.46048 204.78976 573.46048 204.78976zM512 636.19072c-68.58752 0-124.19072-55.6032-124.19072-124.19072S443.41248 387.80928 512 387.80928 636.19072 443.41248 636.19072 512 580.58752 636.19072 512 636.19072zM512 417.31072c-52.224 0-94.68928 42.46528-94.68928 94.68928S459.776 606.68928 512 606.68928 606.68928 564.224 606.68928 512 564.224 417.31072 512 417.31072zM512 579.6352c-37.29408 0-67.6352-30.34112-67.6352-67.6352s30.35136-67.6352 67.6352-67.6352c37.30432 0 67.62496 30.34112 67.62496 67.6352S549.30432 579.6352 512 579.6352zM554.83392 900.05504c1.62816 8.99072 5.19168 17.34656 10.32192 24.85248-17.41824 2.23232-35.13344 3.51232-53.1456 3.51232C282.38848 928.41984 95.58016 741.61152 95.58016 512S282.38848 95.58016 512 95.58016c203.81696 0 373.80096 147.2512 409.43616 340.93056l-40.42752 6.56384C848.5376 268.86144 695.48032 136.54016 512 136.54016c-207.03232 0-375.45984 168.42752-375.45984 375.45984S304.96768 887.45984 512 887.45984c13.86496 0 27.53536-0.80896 41.02144-2.28352C553.14432 890.12224 553.6768 895.08864 554.83392 900.05504zM963.92192 458.96704l0 361.04192c0 29.9008-22.29248 53.74976-57.05728 62.53568-38.17472 9.46176-75.02848-6.52288-82.33984-35.77856-7.3216-29.31712 17.67424-60.74368 55.83872-70.2976 17.24416-4.25984 34.22208-3.38944 48.42496 1.61792L928.78848 560.56832l-195.18464 35.67616-0.90112 270.60224-0.04096 0c-0.17408 25.62048-23.27552 50.78016-56.51456 59.00288-37.71392 9.49248-77.23008-8.45824-81.46944-35.31776-7.24992-28.9792 17.46944-60.09856 55.26528-69.56032 17.00864-4.22912 33.62816-3.3792 47.59552 1.51552L697.53856 502.1696 963.92192 458.96704z" fill="#ec4141" p-id="4410"></path></svg>